<?xml version="1.0" encoding="utf-8"?>
<svg viewBox="90.753 125.4069 56.7656 19.0052" xmlns="http://www.w3.org/2000/svg">
  <path d="M 94.753 133.044 Q 96.378 133.044 97.362 134.278 Q 98.198 135.333 98.198 136.7 Q 98.198 137.661 97.737 138.645 Q 97.276 139.63 96.468 140.13 Q 95.659 140.63 94.667 140.63 Q 93.05 140.63 92.097 139.341 Q 91.292 138.255 91.292 136.903 Q 91.292 135.919 91.78 134.946 Q 92.269 133.974 93.065 133.509 Q 93.862 133.044 94.753 133.044 Z M 94.511 133.552 Q 94.097 133.552 93.679 133.798 Q 93.261 134.044 93.003 134.661 Q 92.745 135.278 92.745 136.247 Q 92.745 137.809 93.366 138.942 Q 93.987 140.075 95.003 140.075 Q 95.761 140.075 96.253 139.45 Q 96.745 138.825 96.745 137.302 Q 96.745 135.395 95.925 134.302 Q 95.37 133.552 94.511 133.552 Z M 101.326 134.559 Q 102.583 133.044 103.724 133.044 Q 104.31 133.044 104.732 133.337 Q 105.154 133.63 105.404 134.302 Q 105.576 134.77 105.576 135.739 L 105.576 138.794 Q 105.576 139.474 105.685 139.716 Q 105.771 139.911 105.962 140.02 Q 106.154 140.13 106.669 140.13 L 106.669 140.411 L 103.13 140.411 L 103.13 140.13 L 103.279 140.13 Q 103.779 140.13 103.978 139.977 Q 104.177 139.825 104.255 139.528 Q 104.286 139.411 104.286 138.794 L 104.286 135.864 Q 104.286 134.888 104.033 134.446 Q 103.779 134.005 103.177 134.005 Q 102.247 134.005 101.326 135.02 L 101.326 138.794 Q 101.326 139.52 101.411 139.692 Q 101.521 139.919 101.712 140.024 Q 101.904 140.13 102.49 140.13 L 102.49 140.411 L 98.951 140.411 L 98.951 140.13 L 99.107 140.13 Q 99.654 140.13 99.845 139.852 Q 100.036 139.575 100.036 138.794 L 100.036 136.138 Q 100.036 134.849 99.978 134.567 Q 99.919 134.286 99.798 134.184 Q 99.677 134.083 99.474 134.083 Q 99.255 134.083 98.951 134.2 L 98.833 133.919 L 100.99 133.044 L 101.326 133.044 Z M 109.703 129.302 L 109.703 138.794 Q 109.703 139.466 109.8 139.684 Q 109.898 139.903 110.101 140.016 Q 110.304 140.13 110.859 140.13 L 110.859 140.411 L 107.351 140.411 L 107.351 140.13 Q 107.843 140.13 108.023 140.028 Q 108.203 139.927 108.304 139.692 Q 108.406 139.458 108.406 138.794 L 108.406 132.294 Q 108.406 131.083 108.351 130.806 Q 108.296 130.528 108.175 130.427 Q 108.054 130.325 107.867 130.325 Q 107.664 130.325 107.351 130.45 L 107.218 130.177 L 109.351 129.302 Z M 111.274 133.255 L 114.61 133.255 L 114.61 133.544 L 114.446 133.544 Q 114.095 133.544 113.919 133.696 Q 113.743 133.849 113.743 134.075 Q 113.743 134.38 114.001 134.919 L 115.743 138.528 L 117.345 134.575 Q 117.477 134.255 117.477 133.942 Q 117.477 133.802 117.423 133.731 Q 117.36 133.645 117.227 133.595 Q 117.095 133.544 116.759 133.544 L 116.759 133.255 L 119.087 133.255 L 119.087 133.544 Q 118.798 133.575 118.641 133.669 Q 118.485 133.763 118.298 134.02 Q 118.227 134.13 118.032 134.622 L 115.118 141.763 Q 114.696 142.802 114.013 143.333 Q 113.329 143.864 112.696 143.864 Q 112.235 143.864 111.938 143.599 Q 111.641 143.333 111.641 142.989 Q 111.641 142.661 111.856 142.462 Q 112.071 142.263 112.446 142.263 Q 112.704 142.263 113.149 142.434 Q 113.462 142.552 113.54 142.552 Q 113.774 142.552 114.052 142.309 Q 114.329 142.067 114.61 141.372 L 115.118 140.13 L 112.548 134.731 Q 112.43 134.489 112.173 134.13 Q 111.977 133.856 111.852 133.763 Q 111.673 133.638 111.274 133.544 Z" style="fill: rgb(255, 255, 255);"/>
  <path d="M 126.386 138.684 Q 125.847 139.263 125.073 139.263 Q 124.464 139.263 123.776 138.684 Q 122.941 139.645 122.296 140.106 Q 121.651 140.567 120.894 140.567 Q 120.214 140.567 119.753 140.005 Q 119.292 139.442 119.292 138.606 Q 119.292 136.974 120.245 134.204 Q 121.198 131.434 122.112 130.013 Q 123.144 129.684 123.929 129.481 Q 124.714 129.278 124.831 129.278 Q 125.058 129.278 125.226 129.579 Q 125.394 129.88 125.394 130.302 Q 125.394 131.177 124.667 132.352 Q 123.941 133.528 122.784 134.684 L 121.761 135.708 Q 121.276 137.411 121.276 138.216 Q 121.276 138.661 121.48 138.927 Q 121.683 139.192 122.011 139.192 Q 122.394 139.192 122.702 138.95 Q 123.011 138.708 123.394 138.2 Q 123.003 137.528 123.003 136.825 Q 123.003 135.692 123.616 134.731 Q 124.23 133.77 124.925 133.77 Q 125.198 133.77 125.374 134.013 Q 125.55 134.255 125.55 134.653 Q 125.55 135.934 124.112 138.153 Q 124.542 138.684 125.089 138.684 Q 125.433 138.684 125.683 138.524 Q 125.933 138.364 126.386 137.786 Z M 122.144 134.505 Q 123.409 133.263 124.066 132.212 Q 124.722 131.161 124.722 130.622 Q 124.722 130.403 124.624 130.263 Q 124.526 130.122 124.386 130.122 Q 123.472 130.122 122.144 134.505 Z M 134.716 138.684 Q 133.466 139.872 132.927 140.231 Q 132.388 140.591 131.896 140.591 Q 130.661 140.591 130.731 138.411 Q 129.95 139.528 129.29 140.059 Q 128.63 140.591 127.927 140.591 Q 127.239 140.591 126.759 139.946 Q 126.278 139.302 126.278 138.364 Q 126.278 137.192 126.923 136.13 Q 127.567 135.067 128.575 134.411 Q 129.583 133.755 130.356 133.755 Q 131.333 133.755 131.724 134.653 L 133.317 133.77 L 133.755 133.77 L 133.067 136.059 Q 132.536 137.786 132.536 138.427 Q 132.536 139.099 133.013 139.099 Q 133.317 139.099 133.685 138.774 Q 134.052 138.45 134.716 137.786 Z M 128.997 139.114 Q 129.778 139.114 130.47 137.782 Q 131.161 136.45 131.161 135.325 Q 131.161 134.888 130.966 134.641 Q 130.771 134.395 130.442 134.395 Q 129.661 134.395 128.962 135.724 Q 128.263 137.052 128.263 138.169 Q 128.263 138.591 128.47 138.852 Q 128.677 139.114 128.997 139.114 Z M 137.109 134.106 Q 137.648 133.966 138.195 133.876 Q 138.742 133.786 138.851 133.786 Q 138.929 133.786 138.929 133.849 Q 138.929 133.966 138.867 134.091 Q 138.742 134.45 138.742 134.778 Q 138.742 135.184 139.21 135.888 Q 139.679 136.591 139.679 137.192 Q 139.679 138.388 138.535 139.497 Q 137.39 140.606 136.163 140.606 Q 135.632 140.606 135.195 140.325 Q 134.757 140.044 134.757 139.724 Q 134.757 139.536 135.191 139.013 Q 135.624 138.489 135.812 138.489 Q 136.062 138.489 136.257 139.13 Q 136.453 139.77 136.929 139.77 Q 137.406 139.77 137.824 139.329 Q 138.242 138.888 138.242 138.38 Q 138.242 137.888 137.71 137.067 Q 137.179 136.247 137.007 135.692 Q 136.101 137.153 134.71 138.684 L 134.531 138.684 L 134.531 137.981 Q 136.445 135.942 137.109 134.106 Z M 143.595 134.106 Q 144.134 133.966 144.681 133.876 Q 145.228 133.786 145.337 133.786 Q 145.415 133.786 145.415 133.849 Q 145.415 133.966 145.353 134.091 Q 145.228 134.45 145.228 134.778 Q 145.228 135.184 145.697 135.888 Q 146.165 136.591 146.165 137.192 Q 146.165 138.388 145.021 139.497 Q 143.876 140.606 142.65 140.606 Q 142.118 140.606 141.681 140.325 Q 141.243 140.044 141.243 139.724 Q 141.243 139.536 141.677 139.013 Q 142.111 138.489 142.298 138.489 Q 142.548 138.489 142.743 139.13 Q 142.939 139.77 143.415 139.77 Q 143.892 139.77 144.31 139.329 Q 144.728 138.888 144.728 138.38 Q 144.728 137.888 144.197 137.067 Q 143.665 136.247 143.493 135.692 Q 142.587 137.153 141.197 138.684 L 141.017 138.684 L 141.017 137.981 Q 142.931 135.942 143.595 134.106 Z" style="fill: rgb(255, 255, 255);"/>
</svg>